<svg width="153.15625" height="569" id="mermaid-c719070c4789-light" xmlns="http://www.w3.org/2000/svg" xmlns:xlink="http://www.w3.org/1999/xlink" class="erDiagram" style=" background-color: transparent;" viewBox="0 0 153.15625 569" role="graphics-document document" aria-roledescription="er"><style>#mermaid-c719070c4789-light{font-family:-apple-system,BlinkMacSystemFont,Segoe UI,Helvetica,Arial,sans-serif;font-size:16px;fill:#000000;}@keyframes edge-animation-frame{from{stroke-dashoffset:0;}}@keyframes dash{to{stroke-dashoffset:0;}}#mermaid-c719070c4789-light .edge-animation-slow{stroke-dasharray:9,5!important;stroke-dashoffset:900;animation:dash 50s linear infinite;stroke-linecap:round;}#mermaid-c719070c4789-light .edge-animation-fast{stroke-dasharray:9,5!important;stroke-dashoffset:900;animation:dash 20s linear infinite;stroke-linecap:round;}#mermaid-c719070c4789-light .error-icon{fill:#f8f9fb;}#mermaid-c719070c4789-light .error-text{fill:#070604;stroke:#070604;}#mermaid-c719070c4789-light .edge-thickness-normal{stroke-width:1px;}#mermaid-c719070c4789-light .edge-thickness-thick{stroke-width:3.5px;}#mermaid-c719070c4789-light .edge-pattern-solid{stroke-dasharray:0;}#mermaid-c719070c4789-light .edge-thickness-invisible{stroke-width:0;fill:none;}#mermaid-c719070c4789-light .edge-pattern-dashed{stroke-dasharray:3;}#mermaid-c719070c4789-light .edge-pattern-dotted{stroke-dasharray:2;}#mermaid-c719070c4789-light .marker{fill:#6b6f76;stroke:#6b6f76;}#mermaid-c719070c4789-light .marker.cross{stroke:#6b6f76;}#mermaid-c719070c4789-light svg{font-family:-apple-system,BlinkMacSystemFont,Segoe UI,Helvetica,Arial,sans-serif;font-size:16px;}#mermaid-c719070c4789-light p{margin:0;}#mermaid-c719070c4789-light .entityBox{fill:#f8f9fb;stroke:#0a4bff;}#mermaid-c719070c4789-light .relationshipLabelBox{fill:#f8f9fb;opacity:0.7;background-color:#f8f9fb;}#mermaid-c719070c4789-light .relationshipLabelBox rect{opacity:0.5;}#mermaid-c719070c4789-light .labelBkg{background-color:rgba(248, 249, 251, 0.5);}#mermaid-c719070c4789-light .edgeLabel{background-color:#f8f9fb;}#mermaid-c719070c4789-light .edgeLabel .label rect{fill:#f8f9fb;}#mermaid-c719070c4789-light .edgeLabel .label text{fill:#000000;}#mermaid-c719070c4789-light .edgeLabel .label{fill:#0a4bff;font-size:14px;}#mermaid-c719070c4789-light .label{font-family:-apple-system,BlinkMacSystemFont,Segoe UI,Helvetica,Arial,sans-serif;color:#000000;}#mermaid-c719070c4789-light .edge-pattern-dashed{stroke-dasharray:8,8;}#mermaid-c719070c4789-light .node rect,#mermaid-c719070c4789-light .node circle,#mermaid-c719070c4789-light .node ellipse,#mermaid-c719070c4789-light .node polygon{fill:#f8f9fb;stroke:#0a4bff;stroke-width:1px;}#mermaid-c719070c4789-light .relationshipLine{stroke:#6b6f76;stroke-width:1px;fill:none;}#mermaid-c719070c4789-light .marker{fill:none!important;stroke:#6b6f76!important;stroke-width:1;}#mermaid-c719070c4789-light [data-look=neo].labelBkg{background-color:rgba(248, 249, 251, 0.5);}#mermaid-c719070c4789-light .node .neo-node{stroke:#0a4bff;}#mermaid-c719070c4789-light [data-look="neo"].node rect,#mermaid-c719070c4789-light [data-look="neo"].cluster rect,#mermaid-c719070c4789-light [data-look="neo"].node polygon{stroke:url(#mermaid-c719070c4789-light-gradient);filter:drop-shadow( 1px 2px 2px rgba(185,185,185,1));}#mermaid-c719070c4789-light [data-look="neo"].swimlane.cluster rect{filter:none;}#mermaid-c719070c4789-light [data-look="neo"].node path{stroke:url(#mermaid-c719070c4789-light-gradient);stroke-width:1px;}#mermaid-c719070c4789-light [data-look="neo"].node .outer-path{filter:drop-shadow( 1px 2px 2px rgba(185,185,185,1));}#mermaid-c719070c4789-light [data-look="neo"].node .neo-line path{stroke:#0a4bff;filter:none;}#mermaid-c719070c4789-light [data-look="neo"].node circle{stroke:url(#mermaid-c719070c4789-light-gradient);filter:drop-shadow( 1px 2px 2px rgba(185,185,185,1));}#mermaid-c719070c4789-light [data-look="neo"].node circle .state-start{fill:#000000;}#mermaid-c719070c4789-light [data-look="neo"].icon-shape .icon{fill:url(#mermaid-c719070c4789-light-gradient);filter:drop-shadow( 1px 2px 2px rgba(185,185,185,1));}#mermaid-c719070c4789-light [data-look="neo"].icon-shape .icon-neo path{stroke:url(#mermaid-c719070c4789-light-gradient);filter:drop-shadow( 1px 2px 2px rgba(185,185,185,1));}#mermaid-c719070c4789-light .cmd .nodeLabel{font-family:SFMono-Regular,Menlo,Consolas,Monaco,"Liberation Mono",monospace!important;}#mermaid-c719070c4789-light .nodeLabel,#mermaid-c719070c4789-light .nodeLabel p{text-align:center!important;}#mermaid-c719070c4789-light .node foreignobject&gt;div{display:table!important;margin:0px auto!important;}#mermaid-c719070c4789-light .edgeLabel rect{opacity:0!important;}#mermaid-c719070c4789-light .labelBkg{background:transparent!important;}#mermaid-c719070c4789-light .edgeLabel{background:transparent!important;}#mermaid-c719070c4789-light .edgeLabel p{background:rgb(248, 249, 251)!important;padding:3px 10px!important;border-radius:4px!important;white-space:normal!important;}#mermaid-c719070c4789-light :root{--mermaid-font-family:"trebuchet ms",verdana,arial,sans-serif;}</style><g><defs><marker id="mermaid-c719070c4789-light_er-onlyOneStart" class="marker onlyOne er" refX="0" refY="9" markerWidth="18" markerHeight="18" orient="auto"><path d="M9,0 L9,18 M15,0 L15,18"/></marker></defs><defs><marker id="mermaid-c719070c4789-light_er-onlyOneEnd" class="marker onlyOne er" refX="18" refY="9" markerWidth="18" markerHeight="18" orient="auto"><path d="M3,0 L3,18 M9,0 L9,18"/></marker></defs><defs><marker id="mermaid-c719070c4789-light_er-zeroOrOneStart" class="marker zeroOrOne er" refX="0" refY="9" markerWidth="30" markerHeight="18" orient="auto"><circle fill="white" cx="21" cy="9" r="6"/><path d="M9,0 L9,18"/></marker></defs><defs><marker id="mermaid-c719070c4789-light_er-zeroOrOneEnd" class="marker zeroOrOne er" refX="30" refY="9" markerWidth="30" markerHeight="18" orient="auto"><circle fill="white" cx="9" cy="9" r="6"/><path d="M21,0 L21,18"/></marker></defs><defs><marker id="mermaid-c719070c4789-light_er-oneOrMoreStart" class="marker oneOrMore er" refX="18" refY="18" markerWidth="45" markerHeight="36" orient="auto"><path d="M0,18 Q 18,0 36,18 Q 18,36 0,18 M42,9 L42,27"/></marker></defs><defs><marker id="mermaid-c719070c4789-light_er-oneOrMoreEnd" class="marker oneOrMore er" refX="27" refY="18" markerWidth="45" markerHeight="36" orient="auto"><path d="M3,9 L3,27 M9,18 Q27,0 45,18 Q27,36 9,18"/></marker></defs><defs><marker id="mermaid-c719070c4789-light_er-zeroOrMoreStart" class="marker zeroOrMore er" refX="18" refY="18" markerWidth="57" markerHeight="36" orient="auto"><circle fill="white" cx="48" cy="18" r="6"/><path d="M0,18 Q18,0 36,18 Q18,36 0,18"/></marker></defs><defs><marker id="mermaid-c719070c4789-light_er-zeroOrMoreEnd" class="marker zeroOrMore er" refX="39" refY="18" markerWidth="57" markerHeight="36" orient="auto"><circle fill="white" cx="9" cy="18" r="6"/><path d="M21,18 Q39,0 57,18 Q39,36 21,18"/></marker></defs><g class="root"><g class="clusters"/><g class="edgePaths"><path d="M76.578,92L76.578,100.917C76.578,109.833,76.578,127.667,76.578,145.5C76.578,163.333,76.578,181.167,76.578,190.083L76.578,199" id="mermaid-c719070c4789-light-id_entity-PROJECT-0_entity-DOCUMENT-1_0" class="edge-thickness-normal edge-pattern-solid relationshipLine" style="undefined;;;undefined" data-edge="true" data-et="edge" data-id="id_entity-PROJECT-0_entity-DOCUMENT-1_0" data-points="W3sieCI6NzYuNTc4MTI1LCJ5Ijo5Mn0seyJ4Ijo3Ni41NzgxMjUsInkiOjE0NS41fSx7IngiOjc2LjU3ODEyNSwieSI6MTk5fV0=" data-look="classic" marker-start="url(#mermaid-c719070c4789-light_er-onlyOneStart)" marker-end="url(#mermaid-c719070c4789-light_er-zeroOrMoreEnd)"/><path d="M76.578,283L76.578,291.917C76.578,300.833,76.578,318.667,76.578,336.5C76.578,354.333,76.578,372.167,76.578,381.083L76.578,390" id="mermaid-c719070c4789-light-id_entity-DOCUMENT-1_entity-DIAGRAM-2_1" class="edge-thickness-normal edge-pattern-solid relationshipLine" style="undefined;;;undefined" data-edge="true" data-et="edge" data-id="id_entity-DOCUMENT-1_entity-DIAGRAM-2_1" data-points="W3sieCI6NzYuNTc4MTI1LCJ5IjoyODN9LHsieCI6NzYuNTc4MTI1LCJ5IjozMzYuNX0seyJ4Ijo3Ni41NzgxMjUsInkiOjM5MH1d" data-look="classic" marker-start="url(#mermaid-c719070c4789-light_er-onlyOneStart)" marker-end="url(#mermaid-c719070c4789-light_er-zeroOrMoreEnd)"/></g><g class="edgeLabels"><g class="edgeLabel" transform="translate(76.578125, 145.5)"><g class="label" data-id="id_entity-PROJECT-0_entity-DOCUMENT-1_0" transform="translate(-36.078125, -13.5)"><foreignObject width="72.15625" height="27"><div xmlns="http://www.w3.org/1999/xhtml" class="labelBkg" style="display: table-cell; white-space: nowrap; line-height: 1.5; max-width: 200px; text-align: center;"><span class="edgeLabel"><p>contains</p></span></div></foreignObject></g></g><g class="edgeLabel" transform="translate(76.578125, 336.5)"><g class="label" data-id="id_entity-DOCUMENT-1_entity-DIAGRAM-2_1" transform="translate(-34.90625, -13.5)"><foreignObject width="69.8125" height="27"><div xmlns="http://www.w3.org/1999/xhtml" class="labelBkg" style="display: table-cell; white-space: nowrap; line-height: 1.5; max-width: 200px; text-align: center;"><span class="edgeLabel"><p>embeds</p></span></div></foreignObject></g></g></g><g class="nodes"><g class="node default" id="mermaid-c719070c4789-light-entity-PROJECT-0" data-look="classic" transform="translate(76.578125, 50)"><rect class="basic label-container" style="" x="-57.3359375" y="-42" width="114.671875" height="84"/><g class="label" style="" transform="translate(-37.3359375, -12)"><rect/><foreignObject width="74.671875" height="24"><div xmlns="http://www.w3.org/1999/xhtml" style="display: table-cell; white-space: nowrap; line-height: 1.5; max-width: 200px; text-align: center;"><span class="nodeLabel markdown-node-label"><p>PROJECT</p></span></div></foreignObject></g></g><g class="node default" id="mermaid-c719070c4789-light-entity-DOCUMENT-1" data-look="classic" transform="translate(76.578125, 241)"><rect class="basic label-container" style="" x="-66.21875" y="-42" width="132.4375" height="84"/><g class="label" style="" transform="translate(-46.21875, -12)"><rect/><foreignObject width="92.4375" height="24"><div xmlns="http://www.w3.org/1999/xhtml" style="display: table-cell; white-space: nowrap; line-height: 1.5; max-width: 200px; text-align: center;"><span class="nodeLabel markdown-node-label"><p>DOCUMENT</p></span></div></foreignObject></g></g><g class="node default" id="mermaid-c719070c4789-light-entity-DIAGRAM-2" data-look="classic" transform="translate(76.578125, 475.5)"><g class="outer-path" style=""><path d="M-68.578125 -85.5 L68.578125 -85.5 L68.578125 85.5 L-68.578125 85.5" stroke="none" stroke-width="0" fill="#f8f9fb"/><path d="M-68.578125 -85.5 C-38.27612538345394 -85.5, -7.974125766907875 -85.5, 68.578125 -85.5 M-68.578125 -85.5 C-39.53620532000119 -85.5, -10.494285640002374 -85.5, 68.578125 -85.5 M68.578125 -85.5 C68.578125 -47.096057916271874, 68.578125 -8.692115832543749, 68.578125 85.5 M68.578125 -85.5 C68.578125 -46.543381912181886, 68.578125 -7.586763824363771, 68.578125 85.5 M68.578125 85.5 C37.00054034072222 85.5, 5.422955681444435 85.5, -68.578125 85.5 M68.578125 85.5 C25.809589210601295 85.5, -16.95894657879741 85.5, -68.578125 85.5 M-68.578125 85.5 C-68.578125 45.14198851558028, -68.578125 4.7839770311605605, -68.578125 -85.5 M-68.578125 85.5 C-68.578125 27.348875049260975, -68.578125 -30.80224990147805, -68.578125 -85.5" stroke="#0a4bff" stroke-width="1.3" fill="none" stroke-dasharray="0 0"/></g><g style="" class="row-rect-odd"><path d="M-68.578125 -42.75 L68.578125 -42.75 L68.578125 0 L-68.578125 0" stroke="none" stroke-width="0" fill="hsl(220, 27.2727272727%, 100%)"/><path d="M-68.578125 -42.75 C-36.48971000227166 -42.75, -4.401295004543314 -42.75, 68.578125 -42.75 M-68.578125 -42.75 C-27.519074365487917 -42.75, 13.539976269024166 -42.75, 68.578125 -42.75 M68.578125 -42.75 C68.578125 -28.11459341006703, 68.578125 -13.479186820134064, 68.578125 0 M68.578125 -42.75 C68.578125 -33.385999786948766, 68.578125 -24.021999573897535, 68.578125 0 M68.578125 0 C38.880787249050535 0, 9.18344949810107 0, -68.578125 0 M68.578125 0 C30.261353111195035 0, -8.05541877760993 0, -68.578125 0 M-68.578125 0 C-68.578125 -10.32606618816973, -68.578125 -20.65213237633946, -68.578125 -42.75 M-68.578125 0 C-68.578125 -10.96045650799915, -68.578125 -21.9209130159983, -68.578125 -42.75" stroke="#0a4bff" stroke-width="1.3" fill="none" stroke-dasharray="0 0"/></g><g style="" class="row-rect-even"><path d="M-68.578125 0 L68.578125 0 L68.578125 42.75 L-68.578125 42.75" stroke="none" stroke-width="0" fill="hsl(220, 27.2727272727%, 100%)"/><path d="M-68.578125 0 C-31.4532644136152 0, 5.671596172769597 0, 68.578125 0 M-68.578125 0 C-37.907823465306045 0, -7.23752193061209 0, 68.578125 0 M68.578125 0 C68.578125 12.149503580180456, 68.578125 24.29900716036091, 68.578125 42.75 M68.578125 0 C68.578125 10.669906804231788, 68.578125 21.339813608463576, 68.578125 42.75 M68.578125 42.75 C26.427272946699055 42.75, -15.723579106601889 42.75, -68.578125 42.75 M68.578125 42.75 C39.612303371151164 42.75, 10.646481742302328 42.75, -68.578125 42.75 M-68.578125 42.75 C-68.578125 29.005393080222042, -68.578125 15.26078616044408, -68.578125 0 M-68.578125 42.75 C-68.578125 29.78601360134158, -68.578125 16.82202720268316, -68.578125 0" stroke="#0a4bff" stroke-width="1.3" fill="none" stroke-dasharray="0 0"/></g><g style="" class="row-rect-odd"><path d="M-68.578125 42.75 L68.578125 42.75 L68.578125 85.5 L-68.578125 85.5" stroke="none" stroke-width="0" fill="hsl(220, 27.2727272727%, 100%)"/><path d="M-68.578125 42.75 C-31.082919854488402 42.75, 6.4122852910231956 42.75, 68.578125 42.75 M-68.578125 42.75 C-27.484448792029 42.75, 13.609227415942001 42.75, 68.578125 42.75 M68.578125 42.75 C68.578125 56.9285528523405, 68.578125 71.107105704681, 68.578125 85.5 M68.578125 42.75 C68.578125 58.950132645025356, 68.578125 75.15026529005071, 68.578125 85.5 M68.578125 85.5 C29.430466749322704 85.5, -9.717191501354591 85.5, -68.578125 85.5 M68.578125 85.5 C33.81631682620133 85.5, -0.9454913475973399 85.5, -68.578125 85.5 M-68.578125 85.5 C-68.578125 70.73668763083418, -68.578125 55.973375261668366, -68.578125 42.75 M-68.578125 85.5 C-68.578125 71.95139285951215, -68.578125 58.40278571902431, -68.578125 42.75" stroke="#0a4bff" stroke-width="1.3" fill="none" stroke-dasharray="0 0"/></g><g class="label name" transform="translate(-37.3359375, -76.125)" style=""><foreignObject width="74.671875" height="24"><div xmlns="http://www.w3.org/1999/xhtml" style="display: table-cell; white-space: nowrap; line-height: 1.5; max-width: 176px; text-align: start;"><span class="nodeLabel"><p>DIAGRAM</p></span></div></foreignObject></g><g class="label attribute-type" transform="translate(-56.078125, -33.375)" style=""><foreignObject width="39.125" height="24"><div xmlns="http://www.w3.org/1999/xhtml" style="display: table-cell; white-space: nowrap; line-height: 1.5; max-width: 136px; text-align: start;"><span class="nodeLabel"><p>string</p></span></div></foreignObject></g><g class="label attribute-name" transform="translate(8.046875, -33.375)" style=""><foreignObject width="48.03125" height="24"><div xmlns="http://www.w3.org/1999/xhtml" style="display: table-cell; white-space: nowrap; line-height: 1.5; max-width: 142px; text-align: start;"><span class="nodeLabel"><p>source</p></span></div></foreignObject></g><g class="label attribute-keys" transform="translate(81.078125, -33.375)" style=""><foreignObject width="0" height="0"><div xmlns="http://www.w3.org/1999/xhtml" style="display: table-cell; white-space: nowrap; line-height: 1.5; max-width: 100px; text-align: start;"><span class="nodeLabel"></span></div></foreignObject></g><g class="label attribute-comment" transform="translate(81.078125, -33.375)" style=""><foreignObject width="0" height="0"><div xmlns="http://www.w3.org/1999/xhtml" style="display: table-cell; white-space: nowrap; line-height: 1.5; max-width: 100px; text-align: start;"><span class="nodeLabel"></span></div></foreignObject></g><g class="label attribute-type" transform="translate(-56.078125, 9.375)" style=""><foreignObject width="39.125" height="24"><div xmlns="http://www.w3.org/1999/xhtml" style="display: table-cell; white-space: nowrap; line-height: 1.5; max-width: 136px; text-align: start;"><span class="nodeLabel"><p>string</p></span></div></foreignObject></g><g class="label attribute-name" transform="translate(8.046875, 9.375)" style=""><foreignObject width="44.46875" height="24"><div xmlns="http://www.w3.org/1999/xhtml" style="display: table-cell; white-space: nowrap; line-height: 1.5; max-width: 139px; text-align: start;"><span class="nodeLabel"><p>theme</p></span></div></foreignObject></g><g class="label attribute-keys" transform="translate(81.078125, 9.375)" style=""><foreignObject width="0" height="0"><div xmlns="http://www.w3.org/1999/xhtml" style="display: table-cell; white-space: nowrap; line-height: 1.5; max-width: 100px; text-align: start;"><span class="nodeLabel"></span></div></foreignObject></g><g class="label attribute-comment" transform="translate(81.078125, 9.375)" style=""><foreignObject width="0" height="0"><div xmlns="http://www.w3.org/1999/xhtml" style="display: table-cell; white-space: nowrap; line-height: 1.5; max-width: 100px; text-align: start;"><span class="nodeLabel"></span></div></foreignObject></g><g class="label attribute-type" transform="translate(-56.078125, 52.125)" style=""><foreignObject width="39.125" height="24"><div xmlns="http://www.w3.org/1999/xhtml" style="display: table-cell; white-space: nowrap; line-height: 1.5; max-width: 136px; text-align: start;"><span class="nodeLabel"><p>string</p></span></div></foreignObject></g><g class="label attribute-name" transform="translate(8.046875, 52.125)" style=""><foreignObject width="42.703125" height="24"><div xmlns="http://www.w3.org/1999/xhtml" style="display: table-cell; white-space: nowrap; line-height: 1.5; max-width: 139px; text-align: start;"><span class="nodeLabel"><p>digest</p></span></div></foreignObject></g><g class="label attribute-keys" transform="translate(81.078125, 52.125)" style=""><foreignObject width="0" height="0"><div xmlns="http://www.w3.org/1999/xhtml" style="display: table-cell; white-space: nowrap; line-height: 1.5; max-width: 100px; text-align: start;"><span class="nodeLabel"></span></div></foreignObject></g><g class="label attribute-comment" transform="translate(81.078125, 52.125)" style=""><foreignObject width="0" height="0"><div xmlns="http://www.w3.org/1999/xhtml" style="display: table-cell; white-space: nowrap; line-height: 1.5; max-width: 100px; text-align: start;"><span class="nodeLabel"></span></div></foreignObject></g><g class="divider"><path d="M-68.578125 -42.75005 L-68.578125 -42.74995 L68.578125 -42.74995 L68.578125 -42.75005" stroke="none" stroke-width="0" fill="#f8f9fb" fill-rule="evenodd"/><path d="M-68.578125 -42.75005 C-68.578125 -42.75001254933848, -68.578125 -42.749975098676956, -68.578125 -42.74995 M-68.578125 -42.75005 C-68.578125 -42.75002135517385, -68.578125 -42.7499927103477, -68.578125 -42.74995 M-68.578125 -42.74995 C-39.671167606900944 -42.74995, -10.764210213801888 -42.74995, 68.578125 -42.74995 M-68.578125 -42.74995 C-34.523587394525336 -42.74995, -0.46904978905067196 -42.74995, 68.578125 -42.74995 M68.578125 -42.74995 C68.578125 -42.74997330633005, 68.578125 -42.7499966126601, 68.578125 -42.75005 M68.578125 -42.74995 C68.578125 -42.749979781823384, 68.578125 -42.75000956364677, 68.578125 -42.75005 M68.578125 -42.75005 C31.238541137542178 -42.75005, -6.101042724915644 -42.75005, -68.578125 -42.75005 M68.578125 -42.75005 C31.371356658194074 -42.75005, -5.835411683611852 -42.75005, -68.578125 -42.75005" stroke="#0a4bff" stroke-width="1.3" fill="none" stroke-dasharray="0 0"/></g><g class="divider"><path d="M-4.453175 -42.75 L-4.453075 -42.75 L-4.453075 85.5 L-4.453175 85.5" stroke="none" stroke-width="0" fill="#f8f9fb" fill-rule="evenodd"/><path d="M-4.453175 -42.75 C-4.453144912739091 -42.75, -4.453114825478183 -42.75, -4.453075 -42.75 M-4.453175 -42.75 C-4.453143895074103 -42.75, -4.453112790148206 -42.75, -4.453075 -42.75 M-4.453075 -42.75 C-4.453075 -12.3581352801755, -4.453075 18.033729439649, -4.453075 85.5 M-4.453075 -42.75 C-4.453075 -9.718461807832846, -4.453075 23.31307638433431, -4.453075 85.5 M-4.453075 85.5 C-4.453107574542402 85.5, -4.453140149084804 85.5, -4.453175 85.5 M-4.453075 85.5 C-4.453104957498458 85.5, -4.453134914996917 85.5, -4.453175 85.5 M-4.453175 85.5 C-4.453175 55.429431199505075, -4.453175 25.35886239901015, -4.453175 -42.75 M-4.453175 85.5 C-4.453175 45.69806342667397, -4.453175 5.896126853347937, -4.453175 -42.75" stroke="#0a4bff" stroke-width="1.3" fill="none" stroke-dasharray="0 0"/></g><g class="divider"><path d="M-68.578125 -42.75005 L-68.578125 -42.74995 L68.578125 -42.74995 L68.578125 -42.75005" stroke="none" stroke-width="0" fill="#f8f9fb" fill-rule="evenodd"/><path d="M-68.578125 -42.75005 C-68.578125 -42.750011551043784, -68.578125 -42.74997310208757, -68.578125 -42.74995 M-68.578125 -42.75005 C-68.578125 -42.75001722144797, -68.578125 -42.749984442895936, -68.578125 -42.74995 M-68.578125 -42.74995 C-31.56357628165341 -42.74995, 5.450972436693178 -42.74995, 68.578125 -42.74995 M-68.578125 -42.74995 C-26.460438668011427 -42.74995, 15.657247663977145 -42.74995, 68.578125 -42.74995 M68.578125 -42.74995 C68.578125 -42.74997649637578, 68.578125 -42.75000299275156, 68.578125 -42.75005 M68.578125 -42.74995 C68.578125 -42.749988456849486, 68.578125 -42.75002691369897, 68.578125 -42.75005 M68.578125 -42.75005 C27.68602525318402 -42.75005, -13.20607449363196 -42.75005, -68.578125 -42.75005 M68.578125 -42.75005 C17.052232512821085 -42.75005, -34.47365997435783 -42.75005, -68.578125 -42.75005" stroke="#0a4bff" stroke-width="1.3" fill="none" stroke-dasharray="0 0"/></g></g></g></g></g><defs><filter id="mermaid-c719070c4789-light-drop-shadow" height="130%" width="130%"><feDropShadow dx="4" dy="4" stdDeviation="0" flood-opacity="0.06" flood-color="#000000"/></filter></defs><defs><filter id="mermaid-c719070c4789-light-drop-shadow-small" height="150%" width="150%"><feDropShadow dx="2" dy="2" stdDeviation="0" flood-opacity="0.06" flood-color="#000000"/></filter></defs><linearGradient id="mermaid-c719070c4789-light-gradient" gradientUnits="objectBoundingBox" x1="0%" y1="0%" x2="100%" y2="0%"><stop offset="0%" stop-color="#0a4bff" stop-opacity="1"/><stop offset="100%" stop-color="hsl(0, 0%, 90%)" stop-opacity="1"/></linearGradient></svg>